# xmcd
#
# Track frame offsets:
#	150
#	11860
#	23410
#	36910
#	94960
#	105010
#	117035
#	129560
#	143060
#	157060
#	167310
#	177110
#	188510
#	199985
#	211435
#	219410
#	229960
#	243685
#
# Disc length: 3413 seconds
#
# Revision: 2
# Processed by: cddbd v1.5.2PL0 Copyright (c) Steve Scherf et al.
# Submitted via: audiograbber 1.83.01
#
DISCID=ef0d5312
DTITLE=Various Artist - Desperado - Best Of Country CD 2
DYEAR=1995
DGENRE=Country
TTITLE0=Stonewall Jackson - Waterloo
TTITLE1=Jean Shepard - Too Many Rivers
TTITLE2=Ferlin Husky - Country Music Is Here To Stay
TTITLE3=The Dillards - Orange Blossom Special
TTITLE4=Roger Miller - Engine Engine #9
TTITLE5=Lynn Anderson - Happy Trails
TTITLE6=Stonewall Jackson - I`m Just An Old Chunk Of Coal
TTITLE7=Vern Godfin - It`s Not Over
TTITLE8=Vern Gosdin - Friday Night Feeling
TTITLE9=Waylon Jennings - Lorena
TTITLE10=Pat Boone - Kansas City
TTITLE11=Willie Nelson - Night Life
TTITLE12=Marshall Tucker Band - Hillbilly Band
TTITLE13=Kenny Rogers - Me And Bobby Mcgee
TTITLE14=George Jones - Jambalaya
TTITLE15=Roger Miller - Kansas City Star
TTITLE16=The All Stars, Charlie McCoy, Gary Burnette, Mike Chapman - Play Me A 
TTITLE16=Love Song Tonight
TTITLE17=Johnny Russell - Goodhearted Women
EXTD=
EXTT0=
EXTT1=
EXTT2=
EXTT3=
EXTT4=
EXTT5=
EXTT6=
EXTT7=
EXTT8=
EXTT9=
EXTT10=
EXTT11=
EXTT12=
EXTT13=
EXTT14=
EXTT15=
EXTT16=
EXTT17=
PLAYORDER=
